<svg width="127" height="30" viewBox="0 0 127 30" fill="none" xmlns="http://www.w3.org/2000/svg">
<g clip-path="url(#clip0_55_9547)">
<path d="M126.633 26.672C125.97 27.1813 125.238 27.4359 124.439 27.4359C123.882 27.4359 123.382 27.3112 122.94 27.062C122.498 26.8127 122.148 26.4744 121.891 26.047C121.637 25.6161 121.511 25.13 121.511 24.5887C121.511 24.0688 121.628 23.6058 121.864 23.1998C122.1 22.7902 122.423 22.468 122.833 22.2329C123.243 21.9979 123.709 21.8803 124.23 21.8803C124.765 21.8803 125.236 22.0086 125.643 22.2649C126.053 22.5214 126.373 22.8775 126.601 23.3333C126.829 23.7892 126.944 24.3163 126.944 24.9145V25.0855H122.464C122.528 25.3989 122.656 25.6713 122.849 25.9028C123.046 26.1343 123.288 26.3141 123.577 26.4423C123.866 26.5705 124.189 26.6347 124.546 26.6347C125.16 26.6347 125.719 26.4334 126.227 26.031L126.633 26.672ZM122.432 24.3376H126.114C126.075 24.0064 125.971 23.718 125.804 23.4722C125.64 23.223 125.426 23.0289 125.161 22.89C124.901 22.7511 124.607 22.6816 124.278 22.6816C123.947 22.6816 123.647 22.7511 123.379 22.89C123.115 23.0289 122.899 23.223 122.732 23.4722C122.567 23.718 122.467 24.0064 122.432 24.3376Z" fill="url(#paint0_linear_55_9547)"/>
<path d="M120.649 26.5598C120.388 26.8412 120.079 27.0584 119.722 27.2116C119.366 27.3611 118.982 27.4359 118.571 27.4359C118.04 27.4359 117.561 27.3148 117.137 27.0727C116.716 26.8305 116.382 26.4993 116.136 26.0791C115.893 25.6588 115.772 25.1852 115.772 24.6581C115.772 24.1275 115.893 23.6539 116.136 23.2372C116.382 22.8169 116.716 22.4857 117.137 22.2436C117.561 22.0015 118.04 21.8803 118.571 21.8803C118.978 21.8803 119.36 21.9551 119.717 22.1047C120.074 22.2543 120.382 22.4698 120.643 22.7511L120.119 23.3013C119.929 23.1019 119.702 22.9487 119.439 22.8419C119.178 22.735 118.901 22.6816 118.609 22.6816C118.234 22.6816 117.9 22.7671 117.608 22.9381C117.319 23.1055 117.091 23.3369 116.923 23.6325C116.759 23.9281 116.677 24.2682 116.677 24.6528C116.677 25.0374 116.759 25.3793 116.923 25.6784C117.091 25.9776 117.319 26.2126 117.608 26.3836C117.9 26.551 118.234 26.6347 118.609 26.6347C118.901 26.6347 119.18 26.5812 119.444 26.4744C119.708 26.364 119.933 26.2108 120.119 26.0149L120.649 26.5598Z" fill="url(#paint1_linear_55_9547)"/>
<path d="M114.588 27.3291H113.833L113.775 26.6239C113.579 26.8768 113.328 27.0763 113.026 27.2222C112.722 27.3647 112.383 27.4359 112.008 27.4359C111.622 27.4359 111.278 27.3611 110.975 27.2116C110.672 27.0584 110.433 26.8501 110.258 26.5866C110.086 26.323 110.001 26.0239 110.001 25.6891C110.001 25.3366 110.094 25.0267 110.28 24.7597C110.468 24.489 110.724 24.2771 111.045 24.124C111.369 23.9708 111.737 23.8942 112.147 23.8942C112.415 23.8942 112.688 23.9281 112.966 23.9957C113.245 24.0598 113.493 24.1489 113.71 24.2629V24.0385C113.71 23.7536 113.639 23.5114 113.496 23.312C113.353 23.109 113.162 22.9541 112.923 22.8472C112.684 22.7368 112.421 22.6816 112.131 22.6816C111.882 22.6816 111.626 22.7279 111.366 22.8205C111.105 22.9096 110.856 23.0485 110.616 23.2372L110.328 22.484C110.638 22.2846 110.964 22.135 111.307 22.0353C111.65 21.932 111.988 21.8803 112.324 21.8803C112.788 21.8803 113.188 21.9748 113.523 22.1635C113.862 22.3486 114.124 22.614 114.31 22.9594C114.495 23.3013 114.588 23.7073 114.588 24.1774V27.3291ZM112.164 26.6347C112.438 26.6347 112.69 26.5777 112.918 26.4637C113.146 26.3497 113.332 26.1859 113.475 25.9723C113.618 25.755 113.696 25.4986 113.71 25.203V25.1122C113.514 24.9591 113.293 24.8416 113.047 24.7597C112.804 24.6742 112.556 24.6314 112.303 24.6314C111.907 24.6314 111.574 24.7276 111.307 24.9199C111.043 25.1122 110.911 25.3561 110.911 25.6517C110.911 25.8369 110.964 26.0043 111.072 26.1538C111.182 26.3035 111.332 26.421 111.521 26.5064C111.71 26.5919 111.925 26.6347 112.164 26.6347Z" fill="url(#paint2_linear_55_9547)"/>
<path d="M104.209 30H103.331V21.9872H104.112L104.155 22.7671C104.405 22.4929 104.707 22.2775 105.06 22.1207C105.413 21.9605 105.8 21.8803 106.222 21.8803C106.746 21.8803 107.215 22.0015 107.629 22.2436C108.046 22.4857 108.375 22.8169 108.614 23.2372C108.856 23.6539 108.978 24.1275 108.978 24.6581C108.978 25.1852 108.856 25.6588 108.614 26.0791C108.375 26.4993 108.046 26.8305 107.629 27.0727C107.215 27.3148 106.746 27.4359 106.222 27.4359C105.818 27.4359 105.443 27.3629 105.097 27.2169C104.755 27.0709 104.459 26.8679 104.209 26.6079V30ZM106.152 26.6347C106.527 26.6347 106.858 26.551 107.147 26.3836C107.436 26.2126 107.661 25.9776 107.821 25.6784C107.986 25.3793 108.068 25.0374 108.068 24.6528C108.068 24.2646 107.986 23.9227 107.821 23.6272C107.658 23.328 107.431 23.0929 107.142 22.922C106.857 22.7511 106.528 22.6656 106.157 22.6656C105.804 22.6656 105.484 22.744 105.199 22.9006C104.917 23.0574 104.689 23.2728 104.514 23.5471C104.339 23.8177 104.238 24.1275 104.209 24.4765V24.8398C104.238 25.1887 104.337 25.4986 104.508 25.7692C104.68 26.0399 104.907 26.2518 105.188 26.4049C105.474 26.5581 105.795 26.6347 106.152 26.6347Z" fill="url(#paint3_linear_55_9547)"/>
<path d="M98.2446 26.8643L98.4746 26.0417C98.6031 26.1628 98.7496 26.2678 98.9134 26.3569C99.078 26.4459 99.2509 26.5153 99.4327 26.5652C99.6146 26.6115 99.7987 26.6347 99.9843 26.6347C100.316 26.6347 100.583 26.5616 100.787 26.4156C100.991 26.2696 101.092 26.0791 101.092 25.844C101.092 25.6731 101.039 25.5324 100.931 25.422C100.828 25.3081 100.691 25.2101 100.519 25.1282C100.348 25.0463 100.164 24.9679 99.9678 24.8932C99.7288 24.8006 99.4913 24.6955 99.2561 24.578C99.0209 24.4605 98.824 24.3055 98.667 24.1132C98.5137 23.9209 98.437 23.6681 98.437 23.3547C98.437 23.0556 98.5122 22.7956 98.6617 22.5748C98.812 22.354 99.0209 22.183 99.2884 22.062C99.5597 21.9409 99.8701 21.8803 100.22 21.8803C100.748 21.8803 101.267 22.0121 101.777 22.2757L101.515 23.0662C101.401 22.9915 101.269 22.9256 101.119 22.8686C100.969 22.8081 100.815 22.7617 100.658 22.7297C100.501 22.6977 100.353 22.6816 100.214 22.6816C99.9535 22.6816 99.7431 22.7422 99.5823 22.8633C99.4222 22.9808 99.3418 23.1393 99.3418 23.3387C99.3418 23.4526 99.3741 23.5577 99.438 23.6539C99.5056 23.7465 99.6183 23.839 99.7754 23.9317C99.9325 24.0242 100.15 24.1275 100.428 24.2415C100.674 24.3412 100.917 24.4552 101.156 24.5833C101.396 24.708 101.593 24.8701 101.75 25.0695C101.911 25.2653 101.991 25.5217 101.991 25.8387C101.991 26.1521 101.907 26.4298 101.74 26.672C101.575 26.9107 101.345 27.0976 101.049 27.2329C100.757 27.3682 100.418 27.4359 100.032 27.4359C99.3936 27.4359 98.7977 27.2454 98.2446 26.8643Z" fill="url(#paint4_linear_55_9547)"/>
<path d="M120.225 14.698L120.638 13.2227C120.868 13.4399 121.13 13.6283 121.425 13.7879C121.719 13.9476 122.03 14.0721 122.356 14.1615C122.682 14.2445 123.012 14.286 123.344 14.286C123.939 14.286 124.419 14.1551 124.784 13.8933C125.149 13.6315 125.331 13.2898 125.331 12.8683C125.331 12.5618 125.236 12.3095 125.043 12.1115C124.858 11.9072 124.611 11.7315 124.304 11.5847C123.997 11.4377 123.667 11.2973 123.316 11.1632C122.887 10.9971 122.461 10.8087 122.039 10.598C121.616 10.3872 121.265 10.1094 120.983 9.76455C120.708 9.4197 120.57 8.96625 120.57 8.40428C120.57 7.8678 120.705 7.4016 120.974 7.00565C121.242 6.6097 121.616 6.30315 122.097 6.08602C122.583 5.86888 123.14 5.76031 123.766 5.76031C124.714 5.76031 125.645 5.99661 126.56 6.46919L126.089 7.88692C125.885 7.75282 125.648 7.6347 125.379 7.53255C125.111 7.42395 124.835 7.34093 124.554 7.28345C124.272 7.22597 124.007 7.19723 123.757 7.19723C123.29 7.19723 122.913 7.3058 122.625 7.52295C122.336 7.7337 122.193 8.01788 122.193 8.37548C122.193 8.57985 122.25 8.76825 122.366 8.94068C122.487 9.10673 122.689 9.27278 122.97 9.43883C123.252 9.60488 123.642 9.79005 124.141 9.99443C124.583 10.1732 125.018 10.3776 125.447 10.6076C125.875 10.8311 126.231 11.1216 126.512 11.4793C126.8 11.8305 126.944 12.2903 126.944 12.8587C126.944 13.4207 126.793 13.9188 126.493 14.3531C126.198 14.781 125.786 15.1163 125.254 15.359C124.73 15.6017 124.122 15.7229 123.43 15.7229C122.285 15.7229 121.217 15.3813 120.225 14.698Z" fill="url(#paint5_linear_55_9547)"/>
<path d="M118.006 15.5314H116.431V10.4255C116.431 9.39735 116.204 8.59905 115.75 8.03063C115.302 7.45588 114.668 7.16849 113.849 7.16849C113.024 7.16849 112.374 7.45907 111.901 8.04022C111.434 8.61502 111.2 9.4101 111.2 10.4255V15.5314H109.626V10.4255C109.626 9.39735 109.399 8.59905 108.944 8.03063C108.49 7.45588 107.854 7.16849 107.035 7.16849C106.209 7.16849 105.56 7.45907 105.086 8.04022C104.619 8.61502 104.385 9.4101 104.385 10.4255V15.5314H102.811V5.9519H104.097L104.165 7.66665C104.484 7.04077 104.919 6.56818 105.47 6.24886C106.026 5.92316 106.682 5.76031 107.437 5.76031C108.244 5.76031 108.931 5.94232 109.501 6.30634C110.077 6.66397 110.506 7.17808 110.788 7.84868C111.101 7.16531 111.546 6.64801 112.121 6.29677C112.704 5.93913 113.398 5.76031 114.205 5.76031C115.401 5.76031 116.332 6.1403 116.998 6.90027C117.67 7.65383 118.006 8.70758 118.006 10.0615V15.5314Z" fill="url(#paint6_linear_55_9547)"/>
<path d="M99.9197 15.5314H98.5663L98.4611 14.2669C98.1086 14.7203 97.6607 15.0779 97.1167 15.3398C96.5734 15.5952 95.9654 15.7229 95.2936 15.7229C94.6022 15.7229 93.9845 15.5888 93.4404 15.3206C92.8971 15.046 92.468 14.6724 92.1547 14.1998C91.8473 13.7273 91.694 13.1908 91.694 12.5905C91.694 11.9582 91.8601 11.4026 92.193 10.9237C92.5319 10.4383 92.9896 10.0583 93.5652 9.78368C94.1476 9.5091 94.8066 9.37178 95.5431 9.37178C96.0225 9.37178 96.5125 9.43245 97.0115 9.5538C97.5104 9.6687 97.9553 9.82838 98.3453 10.0328V9.63045C98.3453 9.11955 98.2176 8.68523 97.9613 8.32763C97.7058 7.96358 97.3632 7.68578 96.9348 7.4942C96.5057 7.29623 96.0323 7.19723 95.5138 7.19723C95.0659 7.19723 94.6082 7.28026 94.1416 7.4463C93.6742 7.60598 93.2263 7.85505 92.7979 8.19353L92.2794 6.8428C92.8362 6.48516 93.4217 6.21694 94.0356 6.03812C94.6503 5.85292 95.2583 5.76031 95.8594 5.76031C96.6913 5.76031 97.4082 5.92955 98.0094 6.26803C98.6174 6.60011 99.0878 7.0759 99.4207 7.69538C99.7536 8.30843 99.9197 9.03653 99.9197 9.87945V15.5314ZM95.5716 14.286C96.0646 14.286 96.5155 14.1839 96.9251 13.9795C97.3346 13.7751 97.6675 13.4814 97.923 13.0981C98.1793 12.7086 98.3198 12.2488 98.3453 11.7188V11.5559C97.9937 11.2813 97.5969 11.0705 97.155 10.9237C96.7199 10.7704 96.2758 10.6937 95.8211 10.6937C95.111 10.6937 94.5158 10.8662 94.0356 11.211C93.5622 11.5559 93.3255 11.9933 93.3255 12.5234C93.3255 12.8555 93.4217 13.1557 93.6133 13.4239C93.8117 13.6921 94.0807 13.9028 94.4196 14.0561C94.7593 14.2094 95.1425 14.286 95.5716 14.286Z" fill="url(#paint7_linear_55_9547)"/>
<path d="M89.3013 14.3531C88.1117 15.2663 86.7996 15.7229 85.3666 15.7229C84.3678 15.7229 83.4721 15.4994 82.6785 15.0524C81.885 14.6054 81.2582 13.9987 80.7976 13.2323C80.3429 12.4595 80.116 11.5878 80.116 10.6171C80.116 9.68468 80.3271 8.8545 80.7495 8.12648C81.1718 7.39202 81.7512 6.81406 82.4869 6.39256C83.2226 5.97106 84.0575 5.76031 84.9916 5.76031C85.952 5.76031 86.7966 5.99022 87.5256 6.45004C88.262 6.90985 88.8346 7.54845 89.2442 8.36595C89.6537 9.18338 89.8581 10.1285 89.8581 11.2015V11.508H81.8248C81.9398 12.07 82.1698 12.5585 82.5154 12.9737C82.8671 13.3888 83.303 13.7113 83.8208 13.9412C84.3393 14.1711 84.9187 14.286 85.5582 14.286C86.6591 14.286 87.6638 13.9252 88.5724 13.2035L89.3013 14.3531ZM81.767 10.1669H88.3702C88.3003 9.57293 88.1147 9.05565 87.8141 8.61503C87.5195 8.16795 87.1355 7.81988 86.6621 7.5708C86.1947 7.32177 85.6671 7.19723 85.078 7.19723C84.4836 7.19723 83.9455 7.32177 83.4661 7.5708C82.9926 7.81988 82.6049 8.16795 82.3043 8.61503C82.0097 9.05565 81.8308 9.57293 81.767 10.1669Z" fill="url(#paint8_linear_55_9547)"/>
<path d="M74.7195 15.5314H73.1454V5.9519H74.5276L74.5948 7.84868C74.9275 7.19085 75.3944 6.67994 75.9963 6.31592C76.6043 5.94552 77.3017 5.76031 78.0885 5.76031C78.2613 5.76031 78.4372 5.76989 78.6168 5.78905C78.7956 5.80821 78.9745 5.83695 79.1541 5.87527L78.9617 7.29303C78.61 7.21001 78.2613 7.16849 77.9156 7.16849C77.2889 7.16849 76.732 7.32177 76.2458 7.62832C75.7656 7.93485 75.3914 8.35635 75.1227 8.89282C74.8539 9.42922 74.7195 10.0455 74.7195 10.7416V15.5314Z" fill="url(#paint9_linear_55_9547)"/>
<path d="M70.0717 15.5315H68.6703L68.5839 14.1329C68.1424 14.6247 67.6049 15.0142 66.9714 15.3016C66.3379 15.5826 65.6468 15.7231 64.8981 15.7231C63.9511 15.7231 63.1032 15.506 62.3546 15.0717C61.6059 14.6374 61.014 14.0435 60.5788 13.2899C60.1501 12.5364 59.9358 11.687 59.9358 10.7418C59.9358 9.79027 60.1501 8.9409 60.5788 8.19368C61.014 7.4401 61.6059 6.84616 62.3546 6.4119C63.1032 5.97763 63.9511 5.76049 64.8981 5.76049C65.6212 5.76049 66.2899 5.89141 66.9042 6.15325C67.5249 6.41509 68.056 6.77912 68.4976 7.24532V1.16235H70.0717V15.5315ZM65.0325 14.3053C65.6724 14.3053 66.2547 14.1585 66.7794 13.8647C67.3041 13.5646 67.7201 13.159 68.0272 12.6482C68.3407 12.1309 68.4976 11.5465 68.4976 10.8951V10.5694C68.4976 9.918 68.3407 9.33683 68.0272 8.82592C67.7201 8.30865 67.3041 7.90312 66.7794 7.60935C66.2547 7.31556 65.6724 7.16868 65.0325 7.16868C64.3671 7.16868 63.772 7.32514 63.2472 7.63807C62.7225 7.95097 62.3066 8.3757 61.9994 8.91218C61.6987 9.44858 61.5483 10.0553 61.5483 10.7322C61.5483 11.4092 61.6987 12.0191 61.9994 12.5619C62.3066 13.0984 62.7225 13.523 63.2472 13.836C63.772 14.1489 64.3671 14.3053 65.0325 14.3053Z" fill="url(#paint10_linear_55_9547)"/>
<path d="M56.3604 3.90199C55.9637 3.90199 55.6277 3.76468 55.3526 3.49006C55.0838 3.20907 54.9494 2.87059 54.9494 2.47465C54.9494 2.08508 55.0838 1.75299 55.3526 1.47838C55.6277 1.19738 55.9637 1.05688 56.3604 1.05688C56.7635 1.05688 57.1027 1.19738 57.3779 1.47838C57.653 1.75299 57.7906 2.08508 57.7906 2.47465C57.7906 2.87059 57.653 3.20907 57.3779 3.49006C57.1027 3.76468 56.7635 3.90199 56.3604 3.90199ZM57.9442 15.5314H54.7959V5.95199H57.9442V15.5314Z" fill="url(#paint11_linear_55_9547)"/>
<path d="M46.4119 15.6847C45.5608 15.6847 44.8025 15.4707 44.137 15.0428C43.4716 14.6086 42.9468 14.0178 42.5629 13.2707C42.1853 12.5234 41.9966 11.6741 41.9966 10.7225C41.9966 9.76455 42.1853 8.91518 42.5629 8.17433C42.9468 7.42715 43.4716 6.8396 44.137 6.41172C44.8025 5.97745 45.5608 5.76031 46.4119 5.76031C47.0709 5.76031 47.6756 5.89123 48.226 6.15307C48.7763 6.40852 49.2498 6.76935 49.6465 7.23555L49.7905 5.9519H52.5452V15.2632C52.5452 16.3105 52.3052 17.2301 51.8253 18.022C51.3518 18.8139 50.6831 19.427 49.8192 19.8613C48.9554 20.2955 47.9444 20.5127 46.7862 20.5127C45.1993 20.5127 43.7403 20.0273 42.4094 19.0566L43.6571 16.4797C44.5018 17.2908 45.468 17.6963 46.5558 17.6963C47.119 17.6963 47.6116 17.5877 48.034 17.3706C48.4627 17.1599 48.7954 16.8597 49.0322 16.4701C49.2754 16.0806 49.3969 15.6335 49.3969 15.129V14.468C49.013 14.8512 48.5683 15.1514 48.0627 15.3685C47.5573 15.5793 47.007 15.6847 46.4119 15.6847ZM47.3141 12.8779C47.7044 12.8779 48.0563 12.7948 48.3699 12.6288C48.6835 12.4627 48.933 12.2297 49.1186 11.9295C49.3042 11.6294 49.3969 11.2909 49.3969 10.9141V10.5117C49.3969 10.1349 49.3009 9.79965 49.109 9.50588C48.9234 9.2121 48.6738 8.98222 48.3603 8.81617C48.0468 8.65013 47.698 8.5671 47.3141 8.5671C46.9173 8.5671 46.559 8.65972 46.2391 8.8449C45.9191 9.03007 45.6664 9.28552 45.4808 9.61125C45.3017 9.93697 45.2121 10.3074 45.2121 10.7225C45.2121 11.1376 45.3017 11.508 45.4808 11.8337C45.6664 12.1594 45.9191 12.4148 46.2391 12.6001C46.559 12.7853 46.9173 12.8779 47.3141 12.8779Z" fill="url(#paint12_linear_55_9547)"/>
<path d="M38.613 3.90199C38.2163 3.90199 37.8803 3.76468 37.6052 3.49006C37.3365 3.20907 37.2021 2.87059 37.2021 2.47465C37.2021 2.08508 37.3365 1.75299 37.6052 1.47838C37.8803 1.19738 38.2163 1.05688 38.613 1.05688C39.0162 1.05688 39.3553 1.19738 39.6305 1.47838C39.9056 1.75299 40.0432 2.08508 40.0432 2.47465C40.0432 2.87059 39.9056 3.20907 39.6305 3.49006C39.3553 3.76468 39.0162 3.90199 38.613 3.90199ZM40.1968 15.5314H37.0485V5.95199H40.1968V15.5314Z" fill="url(#paint13_linear_55_9547)"/>
<path d="M34.7115 15.5315H31.9472L31.784 14.2575C31.3937 14.7109 30.9202 15.0685 30.3635 15.3304C29.8068 15.5922 29.2053 15.7231 28.559 15.7231C27.7016 15.7231 26.9369 15.5092 26.265 15.0813C25.5995 14.647 25.0748 14.0563 24.6908 13.3091C24.3069 12.5555 24.115 11.6998 24.115 10.7418C24.115 9.7839 24.3069 8.9313 24.6908 8.18407C25.0748 7.43051 25.5995 6.83978 26.265 6.4119C26.9369 5.97763 27.7016 5.76049 28.559 5.76049C29.1541 5.76049 29.7076 5.86906 30.2195 6.0862C30.7315 6.29695 31.1793 6.59391 31.5633 6.97709V1.16235H34.7115V15.5315ZM29.4612 12.9067C29.8452 12.9067 30.1971 12.8237 30.5171 12.6577C30.837 12.4852 31.0898 12.249 31.2753 11.9488C31.4673 11.6423 31.5633 11.2943 31.5633 10.9047V10.5503C31.5633 10.1671 31.4673 9.8286 31.2753 9.53483C31.0898 9.23468 30.837 8.99835 30.5171 8.82592C30.1971 8.6535 29.8452 8.56725 29.4612 8.56725C29.0517 8.56725 28.687 8.6631 28.367 8.85465C28.0471 9.0399 27.7943 9.2985 27.6088 9.6306C27.4296 9.95632 27.34 10.3267 27.34 10.7418C27.34 11.1569 27.4296 11.5305 27.6088 11.8626C27.7943 12.1883 28.0471 12.4438 28.367 12.629C28.687 12.8142 29.0517 12.9067 29.4612 12.9067Z" fill="url(#paint14_linear_55_9547)"/>
<path fill-rule="evenodd" clip-rule="evenodd" d="M9.82875 1.91762C7.20997 1.91762 5.14614 3.95348 5.14614 6.39337C5.14614 6.46573 5.14793 6.53761 5.15145 6.60898C5.17259 7.03665 4.90703 7.42647 4.50077 7.56413C2.97873 8.07982 1.9214 9.46222 1.9214 11.0515C1.9214 13.0627 3.62429 14.7509 5.79781 14.7509C6.32838 14.7509 6.7585 15.1802 6.7585 15.7097C6.7585 16.2393 6.32838 16.6685 5.79781 16.6685C2.6284 16.6685 0 14.1857 0 11.0515C0 8.82442 1.33229 6.92191 3.23625 6.01145C3.44081 2.63026 6.34422 0 9.82875 0C13.3132 0 16.2166 2.63026 16.4212 6.01144C18.3251 6.92189 19.6574 8.82442 19.6574 11.0515C19.6574 11.5811 19.2273 12.0103 18.6967 12.0103C18.1662 12.0103 17.736 11.5811 17.736 11.0515C17.736 9.46222 16.6787 8.07982 15.1567 7.56413C14.7506 7.42651 14.4851 7.03688 14.506 6.60933C14.5095 6.53773 14.5113 6.46574 14.5113 6.39337C14.5113 3.95348 12.4475 1.91762 9.82875 1.91762Z" fill="url(#paint15_linear_55_9547)"/>
<path fill-rule="evenodd" clip-rule="evenodd" d="M13.1295 9.0576C13.2541 8.72955 13.0357 8.33895 12.6879 8.39025C12.1676 8.46705 11.6567 8.62313 11.1749 8.85848C10.6751 9.10253 10.2066 9.43193 9.7911 9.84653C7.77098 11.8628 7.77097 15.1316 9.79118 17.1479C11.8113 19.164 15.0867 19.1641 17.1068 17.1479C17.5223 16.7333 17.8523 16.2656 18.0969 15.7668C18.3326 15.286 18.489 14.7761 18.566 14.2568C18.6175 13.9097 18.226 13.6916 17.8973 13.8161C17.4968 13.9677 17.0753 14.0474 16.6527 14.0552C15.6844 14.0729 14.7104 13.7132 13.9715 12.9757C13.2327 12.2383 12.8721 11.2662 12.8899 10.2998C12.8976 9.87803 12.9775 9.45728 13.1295 9.0576ZM11.0472 11.3096C9.8809 12.583 9.9151 14.5597 11.1498 15.7919C12.3845 17.0241 14.365 17.0582 15.6409 15.8943C14.5323 15.707 13.4691 15.1862 12.6129 14.3316C11.7566 13.4771 11.2349 12.416 11.0472 11.3096Z" fill="url(#paint16_linear_55_9547)"/>
</g>
<defs>
<linearGradient id="paint0_linear_55_9547" x1="121.511" y1="24.6581" x2="126.944" y2="24.6581" gradientUnits="userSpaceOnUse">
<stop stop-color="#003049"/>
<stop offset="1" stop-color="#0073AF"/>
</linearGradient>
<linearGradient id="paint1_linear_55_9547" x1="115.772" y1="24.6581" x2="120.649" y2="24.6581" gradientUnits="userSpaceOnUse">
<stop stop-color="#003049"/>
<stop offset="1" stop-color="#0073AF"/>
</linearGradient>
<linearGradient id="paint2_linear_55_9547" x1="110.001" y1="24.6581" x2="114.588" y2="24.6581" gradientUnits="userSpaceOnUse">
<stop stop-color="#003049"/>
<stop offset="1" stop-color="#0073AF"/>
</linearGradient>
<linearGradient id="paint3_linear_55_9547" x1="103.331" y1="25.9402" x2="108.978" y2="25.9402" gradientUnits="userSpaceOnUse">
<stop stop-color="#003049"/>
<stop offset="1" stop-color="#0073AF"/>
</linearGradient>
<linearGradient id="paint4_linear_55_9547" x1="98.2446" y1="24.6581" x2="101.991" y2="24.6581" gradientUnits="userSpaceOnUse">
<stop stop-color="#003049"/>
<stop offset="1" stop-color="#0073AF"/>
</linearGradient>
<linearGradient id="paint5_linear_55_9547" x1="120.225" y1="10.7416" x2="126.944" y2="10.7416" gradientUnits="userSpaceOnUse">
<stop stop-color="#003049"/>
<stop offset="1" stop-color="#0073AF"/>
</linearGradient>
<linearGradient id="paint6_linear_55_9547" x1="102.811" y1="10.6458" x2="118.006" y2="10.6458" gradientUnits="userSpaceOnUse">
<stop stop-color="#003049"/>
<stop offset="1" stop-color="#0073AF"/>
</linearGradient>
<linearGradient id="paint7_linear_55_9547" x1="91.694" y1="10.7416" x2="99.9197" y2="10.7416" gradientUnits="userSpaceOnUse">
<stop stop-color="#003049"/>
<stop offset="1" stop-color="#0073AF"/>
</linearGradient>
<linearGradient id="paint8_linear_55_9547" x1="80.116" y1="10.7416" x2="89.8581" y2="10.7416" gradientUnits="userSpaceOnUse">
<stop stop-color="#003049"/>
<stop offset="1" stop-color="#0073AF"/>
</linearGradient>
<linearGradient id="paint9_linear_55_9547" x1="73.1454" y1="10.6458" x2="79.1541" y2="10.6458" gradientUnits="userSpaceOnUse">
<stop stop-color="#003049"/>
<stop offset="1" stop-color="#0073AF"/>
</linearGradient>
<linearGradient id="paint10_linear_55_9547" x1="59.9358" y1="8.44275" x2="70.0717" y2="8.44275" gradientUnits="userSpaceOnUse">
<stop stop-color="#003049"/>
<stop offset="1" stop-color="#0073AF"/>
</linearGradient>
<linearGradient id="paint11_linear_55_9547" x1="54.7959" y1="8.29417" x2="57.9442" y2="8.29417" gradientUnits="userSpaceOnUse">
<stop stop-color="#003049"/>
<stop offset="1" stop-color="#0073AF"/>
</linearGradient>
<linearGradient id="paint12_linear_55_9547" x1="41.9966" y1="13.1365" x2="52.5452" y2="13.1365" gradientUnits="userSpaceOnUse">
<stop stop-color="#003049"/>
<stop offset="1" stop-color="#0073AF"/>
</linearGradient>
<linearGradient id="paint13_linear_55_9547" x1="37.0485" y1="8.29417" x2="40.1968" y2="8.29417" gradientUnits="userSpaceOnUse">
<stop stop-color="#003049"/>
<stop offset="1" stop-color="#0073AF"/>
</linearGradient>
<linearGradient id="paint14_linear_55_9547" x1="24.115" y1="8.44275" x2="34.7115" y2="8.44275" gradientUnits="userSpaceOnUse">
<stop stop-color="#003049"/>
<stop offset="1" stop-color="#0073AF"/>
</linearGradient>
<linearGradient id="paint15_linear_55_9547" x1="0" y1="8.33426" x2="19.6574" y2="8.33426" gradientUnits="userSpaceOnUse">
<stop stop-color="#003049"/>
<stop offset="1" stop-color="#0073AF"/>
</linearGradient>
<linearGradient id="paint16_linear_55_9547" x1="8.27602" y1="13.5228" x2="18.5706" y2="13.5228" gradientUnits="userSpaceOnUse">
<stop stop-color="#003049"/>
<stop offset="1" stop-color="#0073AF"/>
</linearGradient>
<clipPath id="clip0_55_9547">
<rect width="127" height="30" fill="white"/>
</clipPath>
</defs>
</svg>
